<?xml version="1.0" encoding="utf-8"?>
<!-- Generator: Adobe Illustrator 22.1.0, SVG Export Plug-In . SVG Version: 6.00 Build 0)  -->
<svg version="1.1" id="Layer_1" xmlns="http://www.w3.org/2000/svg" xmlns:xlink="http://www.w3.org/1999/xlink" x="0px" y="0px"
	 viewBox="0 0 2562.6 1449.5" style="enable-background:new 0 0 2562.6 1449.5;" xml:space="preserve">
<style type="text/css">
	.st0{fill:#2C3F45;}
	.st1{fill:#A51E36;}
	.st2{fill:#EBEEF1;}
	.st3{font-family:'Futura-Bold';}
	.st4{font-size:113.0545px;}
	.st5{letter-spacing:-5;}
	.st6{fill:#8A8C8C;}
	.st7{fill:#565759;}
	.st8{fill:#EABBB5;}
	.st9{fill:#D3E9CD;}
	.st10{fill:#CFA6BE;}
	.st11{fill:#E8AF86;}
	.st12{fill:#9ACBD5;}
	.st13{fill:#FDF2A6;}
	.st14{fill:none;stroke:#2B4045;stroke-width:8.6432;stroke-miterlimit:10;}
	.st15{font-size:43.3621px;}
	.st16{letter-spacing:-2;}
	.st17{font-family:'Futura-Medium';}
	.st18{font-size:21px;}
	.st19{letter-spacing:-1;}
	.st20{font-size:32.222px;}
	.st21{fill:#FFFFFF;}
	.st22{fill:none;stroke:#2B4045;stroke-width:4.3279;stroke-miterlimit:10;}
	.st23{fill:none;stroke:#2B4045;stroke-width:4.3279;stroke-miterlimit:10;stroke-dasharray:13.2374,5.5156;}
	.st24{fill:none;stroke:#2B4045;stroke-width:4.3279;stroke-miterlimit:10;stroke-dasharray:13.5481,5.645;}
	.st25{fill:#BF1E2D;}
	.st26{font-family:'Futura-Bold';}
	.st27{font-size:37px;}
</style>
<rect x="-428.7" y="-501.5" class="st0" width="215.6" height="207.2"/>
<rect x="-428.7" y="-708.7" class="st1" width="215.6" height="207.2"/>
<rect x="-428.7" y="-915.8" class="st2" width="215.6" height="207.2"/>
<g>
	<g>
		<text transform="matrix(1 0 0 1 20.7285 177.51)" class="st0 st3 st4 st5">WELCOME TO MIT SLOAN</text>
	</g>
	<g>
		<g>
			<polygon class="st6" points="2282.9,164.8 2299.9,164.8 2304.3,164.8 2315.7,164.8 2315.7,54.8 2282.9,54.8 			"/>
		</g>
		<polygon class="st7" points="2318.7,54.8 2318.7,82 2332.3,82 2332.3,164.8 2366.8,164.8 2366.8,82 2404,82 2404,54.8 		"/>
		<g>
			<path class="st7" d="M2235.2,228l-2.6,1.5c-0.5-0.8-0.9-1.4-1.4-1.6c-0.5-0.3-1-0.4-1.8-0.4c-0.9,0-1.6,0.3-2.2,0.7
				c-0.6,0.5-0.9,1.1-0.9,1.9c0,1,0.8,1.9,2.3,2.5l2.1,0.9c1.7,0.7,3,1.5,3.8,2.5c0.8,1,1.2,2.2,1.2,3.7c0,1.9-0.6,3.5-1.9,4.8
				c-1.3,1.3-2.9,1.9-4.8,1.9c-1.8,0-3.3-0.5-4.5-1.6c-1.2-1.1-1.9-2.6-2.2-4.6l3.2-0.7c0.1,1.2,0.4,2.1,0.8,2.6
				c0.7,0.9,1.6,1.4,2.9,1.4c1,0,1.8-0.3,2.5-1c0.7-0.7,1-1.5,1-2.5c0-0.4-0.1-0.8-0.2-1.1c-0.1-0.3-0.3-0.7-0.5-0.9
				c-0.2-0.3-0.6-0.6-0.9-0.8c-0.4-0.3-0.8-0.5-1.4-0.7l-2-0.8c-2.9-1.2-4.3-3-4.3-5.3c0-1.6,0.6-2.9,1.8-4c1.2-1.1,2.7-1.6,4.5-1.6
				C2232,224.4,2233.9,225.6,2235.2,228z"/>
			<path class="st7" d="M2254.4,235.3c0-3,1.1-5.5,3.3-7.6c2.2-2.1,4.8-3.2,7.8-3.2c3,0,5.6,1.1,7.7,3.2c2.2,2.1,3.2,4.7,3.2,7.7
				c0,3-1.1,5.6-3.2,7.7c-2.2,2.1-4.8,3.2-7.9,3.2c-2.7,0-5.2-0.9-7.3-2.8C2255.6,241.4,2254.4,238.7,2254.4,235.3z M2257.6,235.3
				c0,2.3,0.8,4.2,2.3,5.7c1.6,1.5,3.3,2.2,5.4,2.2c2.2,0,4.1-0.8,5.6-2.3c1.5-1.5,2.3-3.4,2.3-5.6c0-2.2-0.8-4.1-2.3-5.6
				c-1.5-1.5-3.3-2.3-5.5-2.3c-2.2,0-4,0.8-5.5,2.3C2258.4,231.2,2257.6,233.1,2257.6,235.3z"/>
			<path class="st7" d="M2293.6,240.8h-9l-2.3,5.1h-3.4l10.4-22.4l10.1,22.4h-3.5L2293.6,240.8z M2292.3,237.8l-3.1-7.2l-3.3,7.2
				H2292.3z"/>
			<path class="st7" d="M2303.8,245.9v-22.5l15.4,16.1v-14.6h3.2v22.3l-15.4-16v14.7H2303.8z"/>
			<path class="st7" d="M2351.8,228l-2.6,1.5c-0.5-0.8-0.9-1.4-1.4-1.6c-0.5-0.3-1-0.4-1.8-0.4c-0.9,0-1.6,0.3-2.2,0.7
				c-0.6,0.5-0.9,1.1-0.9,1.9c0,1,0.8,1.9,2.3,2.5l2.1,0.9c1.7,0.7,3,1.5,3.7,2.5c0.8,1,1.2,2.2,1.2,3.7c0,1.9-0.6,3.5-1.9,4.8
				c-1.3,1.3-2.9,1.9-4.8,1.9c-1.8,0-3.3-0.5-4.5-1.6c-1.2-1.1-1.9-2.6-2.2-4.6l3.2-0.7c0.1,1.2,0.4,2.1,0.8,2.6
				c0.7,0.9,1.6,1.4,2.9,1.4c1,0,1.8-0.3,2.5-1c0.7-0.7,1-1.5,1-2.5c0-0.4-0.1-0.8-0.2-1.1c-0.1-0.3-0.3-0.7-0.5-0.9
				c-0.2-0.3-0.6-0.6-0.9-0.8c-0.4-0.3-0.8-0.5-1.4-0.7l-2-0.8c-2.9-1.2-4.3-3-4.3-5.3c0-1.6,0.6-2.9,1.8-4c1.2-1.1,2.7-1.6,4.5-1.6
				C2348.5,224.4,2350.4,225.6,2351.8,228z"/>
			<path class="st7" d="M2373.4,226v3.8c-1.8-1.5-3.7-2.3-5.7-2.3c-2.2,0-4,0.8-5.5,2.3c-1.5,1.5-2.2,3.4-2.2,5.7
				c0,2.2,0.7,4.1,2.2,5.6c1.5,1.5,3.3,2.3,5.5,2.3c1.1,0,2.1-0.2,2.9-0.5c0.4-0.2,0.9-0.4,1.4-0.7c0.5-0.3,1-0.7,1.5-1.1v3.8
				c-1.8,1-3.7,1.5-5.7,1.5c-3,0-5.6-1.1-7.7-3.1c-2.1-2.1-3.2-4.7-3.2-7.7c0-2.7,0.9-5.1,2.7-7.2c2.2-2.6,5-3.9,8.5-3.9
				C2369.8,224.4,2371.6,225,2373.4,226z"/>
			<path class="st7" d="M2383,233.1h9.1v-8.2h3.2v21.1h-3.2v-9.8h-9.1v9.8h-3.2v-21.1h3.2V233.1z"/>
			<path class="st7" d="M2401,235.3c0-3,1.1-5.5,3.3-7.6c2.2-2.1,4.8-3.2,7.8-3.2c3,0,5.6,1.1,7.7,3.2c2.2,2.1,3.2,4.7,3.2,7.7
				c0,3-1.1,5.6-3.2,7.7c-2.2,2.1-4.8,3.2-7.9,3.2c-2.7,0-5.2-0.9-7.3-2.8C2402.2,241.4,2401,238.7,2401,235.3z M2404.2,235.3
				c0,2.3,0.8,4.2,2.3,5.7c1.6,1.5,3.3,2.2,5.4,2.2c2.2,0,4.1-0.8,5.6-2.3c1.5-1.5,2.3-3.4,2.3-5.6c0-2.2-0.7-4.1-2.2-5.6
				c-1.5-1.5-3.3-2.3-5.5-2.3c-2.2,0-4,0.8-5.6,2.3C2404.9,231.2,2404.2,233.1,2404.2,235.3z"/>
			<path class="st7" d="M2427.6,235.3c0-3,1.1-5.5,3.3-7.6c2.2-2.1,4.8-3.2,7.8-3.2c3,0,5.6,1.1,7.7,3.2c2.2,2.1,3.2,4.7,3.2,7.7
				c0,3-1.1,5.6-3.2,7.7c-2.2,2.1-4.8,3.2-7.9,3.2c-2.7,0-5.2-0.9-7.3-2.8C2428.8,241.4,2427.6,238.7,2427.6,235.3z M2430.8,235.3
				c0,2.3,0.8,4.2,2.3,5.7c1.6,1.5,3.4,2.2,5.4,2.2c2.2,0,4.1-0.8,5.6-2.3c1.5-1.5,2.3-3.4,2.3-5.6c0-2.2-0.7-4.1-2.3-5.6
				c-1.5-1.5-3.3-2.3-5.5-2.3c-2.2,0-4,0.8-5.5,2.3C2431.6,231.2,2430.8,233.1,2430.8,235.3z"/>
			<path class="st7" d="M2458.6,224.9v18.1h7.1v3h-10.3v-21.1H2458.6z"/>
			<path class="st7" d="M2244.3,224.9v18.1h7.1v3h-10.3v-21.1H2244.3z"/>
		</g>
		<g>
			<g>
				<g id="XMLID_72_">
					<path id="XMLID_91_" class="st7" d="M2138.2,177.5h8.3l6.6,17.3l7-17.3h8.4l5.9,32.3h-9.1l-2.7-18.6h-0.1l-7.8,18.6h-3.3
						l-7.4-18.6h-0.1l-3,18.6h-8.5L2138.2,177.5z"/>
					<path id="XMLID_88_" class="st7" d="M2187,204.2l-2.2,5.6h-8.9l12.4-32.3h9.2l12.2,32.3h-9l-2.1-5.6H2187z M2192.9,187.5
						L2192.9,187.5l-3.6,10.3h7L2192.9,187.5z"/>
					<path id="XMLID_86_" class="st7" d="M2212.1,177.5h8.4l15.4,19.8h0.1v-19.8h8.4v32.3h-8.4l-15.4-19.8h-0.1v19.8h-8.4V177.5z"/>
					<path id="XMLID_83_" class="st7" d="M2258.1,204.2l-2.2,5.6h-8.9l12.4-32.3h9.2l12.2,32.3h-9l-2.1-5.6H2258.1z M2263.9,187.5
						L2263.9,187.5l-3.6,10.3h7L2263.9,187.5z"/>
					<path id="XMLID_81_" class="st7" d="M2314.3,191.8c-0.1,4.7-0.4,8.8-3.3,12.8c-3.2,4.4-7.9,6.3-13.3,6.3
						c-10.2,0-17.2-6.9-17.2-17.1c0-10.5,7.1-17.4,17.5-17.4c6.7,0,11.8,3,14.6,9.1l-8,3.3c-1.2-3.1-3.6-5.1-7-5.1
						c-5.5,0-8.4,5.3-8.4,10.2c0,5,3,10.1,8.5,10.1c3.6,0,6.4-1.9,6.8-5.6h-6.9v-6.6H2314.3z"/>
					<path id="XMLID_79_" class="st7" d="M2326.6,184.6v5.4h9.5v7.1h-9.5v5.6h10v7.1h-18.4v-32.3h18.4v7.1H2326.6z"/>
					<path id="XMLID_77_" class="st7" d="M2393.2,184.6v5.4h9.5v7.1h-9.5v5.6h10v7.1h-18.4v-32.3h18.4v7.1H2393.2z"/>
					<path id="XMLID_75_" class="st7" d="M2408.4,177.5h8.4l15.4,19.8h0.1v-19.8h8.4v32.3h-8.4l-15.4-19.8h-0.1v19.8h-8.4V177.5z"/>
					<path id="XMLID_73_" class="st7" d="M2458.7,209.9h-8.4v-25.2h-6.9v-7.1h22.3v7.1h-6.9V209.9z"/>
				</g>
			</g>
			<path id="XMLID_70_" class="st7" d="M2345.6,177.5h8.3l6.6,17.3l7-17.3h8.4l5.9,32.3h-9.1l-2.7-18.6h-0.1l-7.8,18.6h-3.3
				l-7.4-18.6h-0.1l-3,18.6h-8.5L2345.6,177.5z"/>
		</g>
		<polygon class="st1" points="2279.9,109.8 2279.5,107.4 2269.7,54.8 2236.8,54.8 2214.5,108.2 2192.2,54.8 2159.2,54.8 
			2138.7,164.8 2171.5,164.8 2182,108.4 2206.7,164.8 2222.3,164.8 2246.9,108.4 2257.3,164.8 2268.8,164.8 2279.9,164.8 		"/>
	</g>
	<g>
		<path class="st8" d="M1983.5,1346.5c126.1-87.4,129.1-219.7,129.1-219.7l2.3-1.1V649.5h-199.9v631.7L1983.5,1346.5L1983.5,1346.5z
			"/>
		<polygon class="st9" points="785.2,1198.5 503.9,1198.5 503.9,1412.9 841.3,1412.9 927.4,1327 927.4,1258.7 785.2,1258.7 		"/>
		<polygon class="st10" points="607.2,843.2 567.5,843.2 567.5,842.4 500.2,842.4 500.2,888.6 73.8,888.6 73.8,1414.4 503.5,1414.4 
			503.5,1148.6 567.5,1148.6 567.5,1034.6 607.2,1034.6 		"/>
		<polygon class="st11" points="1152.1,1198.5 1152.1,1253.3 1082.1,1253.3 1082.1,1414.4 1701.1,1414.4 1701.1,1359.6 
			1701.1,1253.3 1701.1,1198.5 		"/>
		<rect x="1179.6" y="387.3" class="st12" width="1013.1" height="226.6"/>
		<polygon class="st13" points="926.1,387.3 819.2,387.3 801.9,387.3 327.3,387.3 327.3,649.9 826.2,649.9 826.2,516.7 926.1,516.7 
					"/>
		<g>
			<path class="st14" d="M51.6,1392.2h767.8l132.5-132.5h108v132.5h688.5c0,0,350-7.2,344.3-341.4V883.7h378.8V365.1H305.1v501.3
				H51.6V1392.2z"/>
			<line class="st14" x1="2252.6" y1="415.5" x2="2252.6" y2="661.8"/>
			<line class="st14" x1="2252.6" y1="743" x2="2252.6" y2="883.7"/>
			<line class="st14" x1="2170.5" y1="752.1" x2="2170.5" y2="878.6"/>
			<line class="st14" x1="2252.6" y1="509.2" x2="2471.5" y2="509.2"/>
			<line class="st14" x1="2092.7" y1="883.7" x2="2092.7" y2="627.3"/>
			<line class="st14" x1="2134.5" y1="756.9" x2="2092.7" y2="756.9"/>
			<line class="st14" x1="2252.6" y1="756.9" x2="2210.8" y2="756.9"/>
			<polyline class="st14" points="1157.4,365.1 1157.4,514.3 978.1,514.3 978.1,547.6 			"/>
			<line class="st14" x1="903.9" y1="365.1" x2="903.9" y2="514.3"/>
			<line class="st14" x1="903.9" y1="494.5" x2="779.7" y2="494.5"/>
			<line class="st14" x1="804" y1="586.3" x2="804" y2="494.5"/>
			<polyline class="st14" points="889.8,494.5 889.8,579.6 827,579.6 			"/>
			<polyline class="st14" points="305.1,624.4 481.3,624.4 481.3,717.9 			"/>
			<polyline class="st14" points="305.1,866.4 481.3,866.4 481.3,775.5 			"/>
			<line class="st14" x1="481.3" y1="1176.3" x2="481.3" y2="1392.2"/>
			<polyline class="st14" points="763,1176.3 763,1236.5 905.1,1236.5 			"/>
			<line class="st14" x1="834.1" y1="1176.3" x2="834.1" y2="1236.5"/>
			<line class="st14" x1="905.1" y1="1176.3" x2="905.1" y2="1303.1"/>
			<line class="st14" x1="633.7" y1="1012.4" x2="633.7" y2="1126.4"/>
			<polyline class="st14" points="721.4,1012.4 721.4,1126.4 745.7,1126.4 745.7,1094.4 			"/>
			<line class="st14" x1="745.7" y1="1012.4" x2="745.7" y2="1045.1"/>
			<line class="st14" x1="582.5" y1="1126.4" x2="683.6" y2="1126.4"/>
			<line class="st14" x1="699.6" y1="840.8" x2="699.6" y2="1012.4"/>
			<line class="st14" x1="585" y1="840.8" x2="763" y2="840.8"/>
			<line class="st14" x1="585" y1="977.9" x2="585" y2="1012.4"/>
			<polyline class="st14" points="699.6,901.7 763,901.7 763,931.8 			"/>
			<polyline class="st14" points="763,958 763,1012.4 545.3,1012.4 545.3,1126.4 			"/>
			<line class="st14" x1="654.2" y1="627.6" x2="654.2" y2="840.8"/>
			<polyline class="st14" points="763,768.5 763,741 541.5,741 541.5,789 			"/>
			<line class="st14" x1="763" y1="812" x2="763" y2="862"/>
			<line class="st14" x1="603" y1="627.6" x2="706" y2="627.6"/>
			<polyline class="st14" points="763,660.9 763,627.6 740.6,627.6 740.6,741 			"/>
			<line class="st14" x1="763" y1="711.5" x2="763" y2="741"/>
			<polyline class="st14" points="570.3,741 570.3,627.6 532.6,627.6 			"/>
			<polyline class="st14" points="536.7,821 585,821 585,943.9 			"/>
			<line class="st14" x1="804" y1="622.5" x2="804" y2="1126.4"/>
			<polyline class="st14" points="804,1012.4 980.7,1012.4 980.7,995.1 			"/>
			<line class="st14" x1="910.9" y1="1126.4" x2="838.6" y2="1126.4"/>
			<line class="st14" x1="874.7" y1="1012.4" x2="874.7" y2="1126.4"/>
			<line class="st14" x1="946.1" y1="1128.9" x2="946.1" y2="1012.4"/>
			<polyline class="st14" points="1191.3,1012.4 1057.5,1012.4 1057.5,995.1 			"/>
			<polyline class="st14" points="903.9,620.6 903.9,741 980.7,741 980.7,624.4 935.9,624.4 			"/>
			<line class="st14" x1="833.4" y1="741" x2="804" y2="741"/>
			<line class="st14" x1="907.1" y1="741" x2="883.4" y2="741"/>
			<polyline class="st14" points="1057.5,760.2 1057.5,741 1149.1,741 1149.1,1012.4 			"/>
			<line class="st14" x1="980.7" y1="741" x2="980.7" y2="758.3"/>
			<polyline class="st14" points="1115.8,603.3 1054.3,603.3 1054.3,695.5 1149.1,695.5 1149.1,598.5 			"/>
			<polyline class="st14" points="1254.1,1126.4 1220.1,1126.4 1220.1,741 			"/>
			<line class="st14" x1="1177.6" y1="741" x2="1335.3" y2="741"/>
			<line class="st14" x1="1194" y1="622.8" x2="1194" y2="741"/>
			<line class="st14" x1="1264.9" y1="627.6" x2="1264.9" y2="741"/>
			<line class="st14" x1="1335.3" y1="622.5" x2="1335.3" y2="865.8"/>
			<line class="st14" x1="1226.6" y1="627.6" x2="1301" y2="627.6"/>
			<line class="st14" x1="1393.9" y1="622.5" x2="1393.9" y2="741"/>
			<line class="st14" x1="1365.2" y1="741" x2="1588.2" y2="741"/>
			<polyline class="st14" points="1430.5,627.6 1588.2,627.6 1588.2,659.1 			"/>
			<path class="st14" d="M1588.2,1044.3"/>
			<line class="st14" x1="1588.2" y1="710.4" x2="1588.2" y2="1044.3"/>
			<polyline class="st14" points="1588.2,1095.6 1588.2,1126.4 1565.1,1126.4 1565.1,1015 			"/>
			<polyline class="st14" points="1220.1,1012.4 1335.3,1012.4 1335.3,927.2 			"/>
			<line class="st14" x1="1220.1" y1="896.2" x2="1341.1" y2="896.2"/>
			<polyline class="st14" points="1365.2,1012.4 1393.9,1012.4 1588.2,1012.4 			"/>
			<path class="st14" d="M1393.9,1126.4"/>
			<line class="st14" x1="1393.9" y1="1012.4" x2="1393.9" y2="1132.1"/>
			<line class="st14" x1="1430.5" y1="1126.4" x2="1531.3" y2="1126.4"/>
			<line class="st14" x1="1480.9" y1="1012.4" x2="1480.9" y2="1126.4"/>
			<line class="st14" x1="1565.1" y1="627.3" x2="1565.1" y2="741"/>
			<polyline class="st14" points="1850.6,622.5 1850.6,741 1634.4,741 1634.4,761.1 			"/>
			<polyline class="st14" points="1655.8,659.1 1655.8,627.6 1678.9,627.6 1678.9,741 			"/>
			<line class="st14" x1="1655.8" y1="710.4" x2="1655.8" y2="741"/>
			<line class="st14" x1="1714.3" y1="627.6" x2="1815.7" y2="627.6"/>
			<line class="st14" x1="1765" y1="741" x2="1765" y2="627.6"/>
			<line class="st14" x1="1697.4" y1="741" x2="1697.4" y2="955.9"/>
			<line class="st14" x1="1697.4" y1="982.4" x2="1697.4" y2="1012.4"/>
			<polyline class="st14" points="1634.4,1012.4 1850.6,1012.4 1850.6,969.8 			"/>
			<polyline class="st14" points="1811.2,913.7 1634.4,913.7 1634.4,955.9 			"/>
			<polyline class="st14" points="1811.2,856.2 1811.2,933.7 1856.7,933.7 			"/>
			<line class="st14" x1="1739.7" y1="913.7" x2="1739.7" y2="1012.4"/>
			<polyline class="st14" points="1817,827.5 1634.4,827.5 1634.4,883.7 			"/>
			<line class="st14" x1="1634.4" y1="982.4" x2="1634.4" y2="1044.3"/>
			<polyline class="st14" points="1634.4,1094.4 1634.4,1126.4 1791.5,1126.4 			"/>
			<line class="st14" x1="1826.4" y1="1126.4" x2="1826.4" y2="1012.4"/>
			<line class="st14" x1="1655.8" y1="1012.4" x2="1655.8" y2="1126.4"/>
			<line class="st14" x1="1811.2" y1="743" x2="1811.2" y2="792"/>
			<line class="st14" x1="1382.6" y1="820.2" x2="1382.6" y2="969.8"/>
			<line class="st14" x1="1382.6" y1="991.1" x2="1382.6" y2="1012.4"/>
			<line class="st14" x1="1382.6" y1="741" x2="1382.6" y2="758.3"/>
			<line class="st14" x1="1382.6" y1="781.1" x2="1382.6" y2="798.4"/>
			<polyline class="st14" points="1057.5,1176.3 1057.5,1225.9 1129.9,1225.9 			"/>
			<line class="st14" x1="2170.5" y1="365.1" x2="2170.5" y2="591.7"/>
		</g>
	</g>
	<g>
		<text transform="matrix(1 0 0 1 473.0979 501.8365)" class="st0 st3 st15 st16">FINANCE</text>
	</g>
	<text transform="matrix(1 0 0 1 2342.0627 447.5187)" class="st6 st17 st18 st19">9212</text>
	<text transform="matrix(1 0 0 1 1702.8103 691.7642)" class="st6 st17 st18 st19">9229</text>
	<text transform="matrix(1 0 0 1 1736.7019 792.0316)" class="st6 st17 st18 st19">9203</text>
	<text transform="matrix(1 0 0 1 1736.7019 878.6323)" class="st6 st17 st18 st19">9199</text>
	<text transform="matrix(1 0 0 1 1774.5713 976.3196)" class="st6 st17 st18 st19">9197</text>
	<text transform="matrix(1 0 0 1 1722.5215 1080.9847)" class="st6 st17 st18 st19">9176</text>
	<text transform="matrix(1 0 0 1 1502.2266 1080.9847)" class="st6 st17 st18 st19">9170</text>
	<text transform="matrix(1 0 0 1 1418.4882 1080.9847)" class="st6 st17 st18 st19">9169</text>
	<text transform="matrix(1 0 0 1 1293.6476 1080.9847)" class="st6 st17 st18 st19">9163</text>
	<text transform="matrix(1 0 0 1 1102.9019 1080.9847)" class="st6 st17 st18 st19">9153</text>
	<text transform="matrix(1 0 0 1 1787.1785 691.7642)" class="st6 st17 st18 st19">9221</text>
	<text transform="matrix(1 0 0 1 2329.533 699.017)" class="st6 st3 st20 st19">CAFE</text>
	<g>
		<text transform="matrix(1 0 0 1 1480.9041 501.8365)" class="st0 st3 st15 st16">COMMUNICATIONS</text>
	</g>
	<g>
		<text transform="matrix(1 0 0 1 1264.9324 1278.0962)"><tspan x="0" y="0" class="st0 st3 st15 st16">GLOBAL</tspan><tspan x="0" y="56.4" class="st0 st3 st15 st16">PROGRAMS</tspan></text>
	</g>
	<g>
		<text transform="matrix(1 0 0 1 552.7687 1278.0952)"><tspan x="0" y="0" class="st0 st3 st15 st16">HUMAN</tspan><tspan x="0" y="56.4" class="st0 st3 st15 st16">RECOURCES</tspan></text>
	</g>
	<g>
		<text transform="matrix(1 0 0 1 150.6692 1118.9858)"><tspan x="0" y="0" class="st0 st3 st15 st16">EXECUTIVE</tspan><tspan x="0" y="56.4" class="st0 st3 st15 st16">EDUCATION</tspan></text>
	</g>
	<g>
		<text transform="matrix(1 0 0 1 2123.2332 958.0054)"><tspan x="0" y="0" class="st0 st3 st15 st16">SLOAN</tspan><tspan x="0" y="56.4" class="st0 st3 st15 st16">MANAGEMENT</tspan><tspan x="0" y="112.7" class="st0 st3 st15 st16">REVIEW</tspan></text>
	</g>
	<text transform="matrix(1 0 0 1 373.228 758.251)" class="st6 st17 st18 st19">9132</text>
	<text transform="matrix(1 0 0 1 1006.8854 447.5187)" class="st6 st17 st18 st19">9260</text>
	<text transform="matrix(1 0 0 1 826.1212 547.6128)" class="st6 st17 st18 st19">9262</text>
	<text transform="matrix(1 0 0 1 592.3065 699.0169)" class="st6 st17 st18 st19">9269</text>
	<text transform="matrix(1 0 0 1 623.8049 934.7928)" class="st6 st17 st18 st19">9133</text>
	<text transform="matrix(1 0 0 1 570.1869 1078.9219)" class="st6 st17 st18 st19">9143</text>
	<text transform="matrix(1 0 0 1 654.0534 1078.9219)" class="st6 st17 st18 st19">9144</text>
	<text transform="matrix(1 0 0 1 818.5941 1078.9219)" class="st6 st17 st18 st19">9150</text>
	<text transform="matrix(1 0 0 1 889.9411 1078.9219)" class="st6 st17 st18 st19">9151</text>
	<text transform="matrix(1 0 0 1 679.6628 699.0169)" class="st6 st17 st18 st19">9264</text>
	<text transform="matrix(1 0 0 1 922.3126 699.0169)" class="st6 st17 st18 st19">9261</text>
	<text transform="matrix(1 0 0 1 908.8718 884.6348)" class="st6 st3 st20 st19">ELEVATORS</text>
	<rect x="1230.3" y="667.1" class="st21" width="69.2" height="34.4"/>
	<text transform="matrix(1 0 0 1 1246.6476 691.7639)" class="st6 st17 st18 st19">9252</text>
	<text transform="matrix(1 0 0 1 1460.9336 691.7639)" class="st6 st17 st18 st19">9244</text>
	<text transform="matrix(1 0 0 1 1081.7314 659.1262)" class="st6 st17 st18 st19">9259</text>
	<g>
		<text transform="matrix(1 0 0 1 1222.0035 721.9729)" class="st0 st3 st18 st19">A</text>
	</g>
	<g>
		<text transform="matrix(1 0 0 1 1295.2836 721.9729)" class="st0 st3 st18 st19">B</text>
	</g>
	<g>
		<g>
			<g>
				<g>
					<path class="st0" d="M1469.3,853.5c-9.1,0-9.2,0-16.7,0c-4,0-7.3,3.3-7.4,7.3l-0.1,22.8c0,1.7,1.4,3.1,3.1,3.1c0,0,0,0,0,0
						c1.7,0,3.1-1.4,3.1-3.1l0.1-22.8c0,0,0,0,0,0c0-0.3,0.3-0.6,0.6-0.6c0.3,0,0.6,0.3,0.6,0.6l0,52.2c0,2.1,1.7,3.7,3.7,3.7
						s3.7-1.7,3.7-3.7v-29.8h1.6V913c0,2.1,1.7,3.7,3.7,3.7s3.7-1.7,3.7-3.7c0-49.3-0.1-21.1-0.1-52.2c0-0.3,0.3-0.6,0.6-0.7
						c0.3,0,0.6,0.3,0.7,0.6v0l0,22.8c0,1.7,1.4,3.1,3.1,3.1c0,0,0,0,0,0c1.7,0,3.1-1.4,3.1-3.1l0-22.8c0,0,0,0,0,0
						C1476.6,856.7,1473.3,853.5,1469.3,853.5z"/>
				</g>
			</g>
			<g>
				<g>
					<circle class="st0" cx="1460.9" cy="845" r="6.4"/>
				</g>
			</g>
			<g>
				<g>
					<path class="st0" d="M1529.4,878.8c-0.1-0.2-5.7-16.3-6.6-18.9c-1.4-4.2-3.8-6.3-7.1-6.3c-4.6,0-6.1,0-10.7,0
						c-3.3,0-5.7,2.1-7.1,6.3c-0.9,2.6-6.5,18.7-6.6,18.9c-0.6,1.6,0.3,3.4,1.9,3.9c1.6,0.6,3.4-0.3,3.9-1.9
						c0.2-0.5,3.6-10,5.5-15.4c-0.2,1.6,0.4-1.7-4.4,22.9c-0.2,1.1,0.6,2,1.7,2c0.7,0,1.5,0,2.4,0v22.4c0,2,1.7,3.7,3.7,3.7
						s3.7-1.7,3.7-3.7v-22.4c0.5,0,1.1,0,1.6,0v22.4c0,2,1.7,3.7,3.7,3.7s3.7-1.7,3.7-3.7v-22.4c0.9,0,1.7,0,2.4,0
						c1.1,0,1.9-1,1.7-2c-4.7-24.5-4.2-21.6-4.4-22.9c1.9,5.5,5.2,14.9,5.4,15.4c0.6,1.6,2.3,2.5,3.9,1.9
						C1529.1,882.1,1529.9,880.4,1529.4,878.8z"/>
				</g>
			</g>
			<g>
				<g>
					<circle class="st0" cx="1510.3" cy="845.2" r="6.4"/>
				</g>
			</g>
			<g>
				<g>
					<path class="st0" d="M1484.7,842.7c-1.3,0-2.4,1.1-2.4,2.4v65.2c0,1.3,1.1,2.4,2.4,2.4s2.4-1.1,2.4-2.4v-65.2
						C1487,843.7,1486,842.7,1484.7,842.7z"/>
				</g>
			</g>
		</g>
	</g>
	<g>
		<g>
			<path class="st1" d="M1004.4,1037.5c-16.6,0-30,13.5-30,30c0,20.5,26.9,50.7,28,52c1.1,1.2,2.9,1.2,4,0c1.1-1.3,28-31.4,28-52
				C1034.4,1050.9,1021,1037.5,1004.4,1037.5z M1004.4,1082.6c-8.3,0-15.1-6.8-15.1-15.1s6.8-15.1,15.1-15.1
				c8.3,0,15.1,6.8,15.1,15.1C1019.5,1075.8,1012.7,1082.6,1004.4,1082.6z"/>
		</g>
	</g>
</g>
<g>
	<g>
		<line class="st22" x1="1189.3" y1="1016.7" x2="1189.3" y2="1023.2"/>
		<line class="st23" x1="1189.3" y1="1028.7" x2="1189.3" y2="1119.7"/>
		<polyline class="st22" points="1189.3,1122.5 1189.3,1128.9 1182.8,1128.9 		"/>
		<line class="st24" x1="1177.1" y1="1128.9" x2="1064.8" y2="1128.9"/>
		<polyline class="st22" points="1062,1128.9 1055.5,1128.9 1055.5,1122.5 		"/>
		<line class="st23" x1="1055.5" y1="1116.9" x2="1055.5" y2="1025.9"/>
		<line class="st22" x1="1055.5" y1="1023.2" x2="1055.5" y2="1016.7"/>
	</g>
</g>
<text transform="matrix(1 0 0 1 2111.4534 827.5106)" class="st6 st17 st18 st19">9209</text>
<text transform="matrix(1 0 0 1 2192.5586 827.5106)" class="st6 st17 st18 st19">9210</text>
<rect x="3436.9" y="1593.3" style="fill:none;" width="210" height="189.8"/>
<text transform="matrix(0.6059 0 0 1 942.2829 1163.6967)" class="st25 st26 st27">You are here</text>
</svg>
