<svg version="1.1" id="Layer_1" xmlns="http://www.w3.org/2000/svg" xmlns:xlink="http://www.w3.org/1999/xlink" x="0px" y="0px"
	 viewBox="0 0 3840 2160" style="enable-background:new 0 0 3840 2160;" xml:space="preserve">
<style type="text/css">
	.st0{fill:#2C3F45;}
	.st1{fill:#A51E36;}
	.st2{fill:#EBEEF1;}
	.st3{font-family:'Futura-Bold';}
	.st4{font-size:113.0545px;}
	.st5{letter-spacing:-5;}
	.st6{fill:#8A8C8C;}
	.st7{fill:#565759;}
	.st8{fill:#EABBB5;}
	.st9{fill:#D3E9CD;}
	.st10{fill:#CFA6BE;}
	.st11{fill:#E8AF86;}
	.st12{fill:#9ACBD5;}
	.st13{fill:#FDF2A6;}
	.st14{fill:none;stroke:#2B4045;stroke-width:8.6432;stroke-miterlimit:10;}
	.st15{font-size:43.3621px;}
	.st16{letter-spacing:-2;}
	.st17{font-family:'Futura-Medium';}
	.st18{font-size:21px;}
	.st19{letter-spacing:-1;}
	.st20{font-size:32.222px;}
	.st21{fill:#FFFFFF;}
	.st22{fill:none;stroke:#2B4045;stroke-width:4.3279;stroke-miterlimit:10;}
	.st23{fill:none;stroke:#2B4045;stroke-width:4.3279;stroke-miterlimit:10;stroke-dasharray:13.2374,5.5156;}
	.st24{fill:none;stroke:#2B4045;stroke-width:4.3279;stroke-miterlimit:10;stroke-dasharray:13.5481,5.645;}
</style>
<rect x="417.9" y="-437.7" class="st0" width="215.6" height="207.2"/>
<rect x="417.9" y="-644.8" class="st1" width="215.6" height="207.2"/>
<rect x="417.9" y="-852" class="st2" width="215.6" height="207.2"/>
<g>
	<g>
		<text transform="matrix(1 0 0 1 337.3184 241.3622)" class="st0 st3 st4 st5">WELCOME TO MIT SLOAN</text>
	</g>
	<g>
		<g>
			<polygon class="st6" points="3479.5,228.6 3496.5,228.6 3500.8,228.6 3512.3,228.6 3512.3,118.7 3479.5,118.7 			"/>
		</g>
		<polygon class="st7" points="3515.3,118.7 3515.3,145.8 3528.8,145.8 3528.8,228.6 3563.3,228.6 3563.3,145.8 3600.6,145.8 
			3600.6,118.7 		"/>
		<g>
			<path class="st7" d="M3431.8,291.8l-2.6,1.5c-0.5-0.8-0.9-1.4-1.4-1.6c-0.5-0.3-1-0.4-1.8-0.4c-0.9,0-1.6,0.3-2.2,0.7
				c-0.6,0.5-0.9,1.1-0.9,1.9c0,1,0.8,1.9,2.3,2.5l2.1,0.9c1.7,0.7,3,1.5,3.8,2.5c0.8,1,1.2,2.2,1.2,3.7c0,1.9-0.6,3.5-1.9,4.8
				c-1.3,1.3-2.9,1.9-4.8,1.9c-1.8,0-3.3-0.5-4.5-1.6c-1.2-1.1-1.9-2.6-2.2-4.6l3.2-0.7c0.1,1.2,0.4,2.1,0.8,2.6
				c0.7,0.9,1.6,1.4,2.9,1.4c1,0,1.8-0.3,2.5-1c0.7-0.7,1-1.5,1-2.5c0-0.4-0.1-0.8-0.2-1.1c-0.1-0.3-0.3-0.7-0.5-0.9
				c-0.2-0.3-0.6-0.6-0.9-0.8c-0.4-0.3-0.8-0.5-1.4-0.7l-2-0.8c-2.9-1.2-4.3-3-4.3-5.3c0-1.6,0.6-2.9,1.8-4c1.2-1.1,2.7-1.6,4.5-1.6
				C3428.6,288.3,3430.4,289.5,3431.8,291.8z"/>
			<path class="st7" d="M3451,299.1c0-3,1.1-5.5,3.3-7.6c2.2-2.1,4.8-3.2,7.8-3.2c3,0,5.6,1.1,7.7,3.2c2.2,2.1,3.2,4.7,3.2,7.7
				c0,3-1.1,5.6-3.2,7.7c-2.2,2.1-4.8,3.2-7.9,3.2c-2.7,0-5.2-0.9-7.3-2.8C3452.2,305.2,3451,302.5,3451,299.1z M3454.2,299.2
				c0,2.3,0.8,4.2,2.3,5.7c1.6,1.5,3.3,2.2,5.4,2.2c2.2,0,4.1-0.8,5.6-2.3c1.5-1.5,2.3-3.4,2.3-5.6c0-2.2-0.8-4.1-2.3-5.6
				c-1.5-1.5-3.3-2.3-5.5-2.3c-2.2,0-4,0.8-5.5,2.3C3455,295.1,3454.2,297,3454.2,299.2z"/>
			<path class="st7" d="M3490.2,304.6h-9l-2.3,5.1h-3.4l10.4-22.4l10.1,22.4h-3.5L3490.2,304.6z M3488.9,301.7l-3.1-7.2l-3.3,7.2
				H3488.9z"/>
			<path class="st7" d="M3500.4,309.8v-22.5l15.4,16.1v-14.6h3.2V311l-15.4-16v14.7H3500.4z"/>
			<path class="st7" d="M3548.3,291.8l-2.6,1.5c-0.5-0.8-0.9-1.4-1.4-1.6c-0.5-0.3-1-0.4-1.8-0.4c-0.9,0-1.6,0.3-2.2,0.7
				c-0.6,0.5-0.9,1.1-0.9,1.9c0,1,0.8,1.9,2.3,2.5l2.1,0.9c1.7,0.7,3,1.5,3.7,2.5c0.8,1,1.2,2.2,1.2,3.7c0,1.9-0.6,3.5-1.9,4.8
				c-1.3,1.3-2.9,1.9-4.8,1.9c-1.8,0-3.3-0.5-4.5-1.6c-1.2-1.1-1.9-2.6-2.2-4.6l3.2-0.7c0.1,1.2,0.4,2.1,0.8,2.6
				c0.7,0.9,1.6,1.4,2.9,1.4c1,0,1.8-0.3,2.5-1c0.7-0.7,1-1.5,1-2.5c0-0.4-0.1-0.8-0.2-1.1c-0.1-0.3-0.3-0.7-0.5-0.9
				c-0.2-0.3-0.6-0.6-0.9-0.8c-0.4-0.3-0.8-0.5-1.4-0.7l-2-0.8c-2.9-1.2-4.3-3-4.3-5.3c0-1.6,0.6-2.9,1.8-4c1.2-1.1,2.7-1.6,4.5-1.6
				C3545.1,288.3,3547,289.5,3548.3,291.8z"/>
			<path class="st7" d="M3570,289.8v3.8c-1.8-1.5-3.7-2.3-5.7-2.3c-2.2,0-4,0.8-5.5,2.3c-1.5,1.5-2.2,3.4-2.2,5.7
				c0,2.2,0.7,4.1,2.2,5.6c1.5,1.5,3.3,2.3,5.5,2.3c1.1,0,2.1-0.2,2.9-0.5c0.4-0.2,0.9-0.4,1.4-0.7c0.5-0.3,1-0.7,1.5-1.1v3.8
				c-1.8,1-3.7,1.5-5.7,1.5c-3,0-5.6-1.1-7.7-3.1c-2.1-2.1-3.2-4.7-3.2-7.7c0-2.7,0.9-5.1,2.7-7.2c2.2-2.6,5-3.9,8.5-3.9
				C3566.4,288.3,3568.2,288.8,3570,289.8z"/>
			<path class="st7" d="M3579.6,296.9h9.1v-8.2h3.2v21.1h-3.2v-9.8h-9.1v9.8h-3.2v-21.1h3.2V296.9z"/>
			<path class="st7" d="M3597.6,299.1c0-3,1.1-5.5,3.3-7.6c2.2-2.1,4.8-3.2,7.8-3.2c3,0,5.6,1.1,7.7,3.2c2.2,2.1,3.2,4.7,3.2,7.7
				c0,3-1.1,5.6-3.2,7.7c-2.2,2.1-4.8,3.2-7.9,3.2c-2.7,0-5.2-0.9-7.3-2.8C3598.8,305.2,3597.6,302.5,3597.6,299.1z M3600.8,299.2
				c0,2.3,0.8,4.2,2.3,5.7c1.6,1.5,3.3,2.2,5.4,2.2c2.2,0,4.1-0.8,5.6-2.3c1.5-1.5,2.3-3.4,2.3-5.6c0-2.2-0.7-4.1-2.2-5.6
				c-1.5-1.5-3.3-2.3-5.5-2.3c-2.2,0-4,0.8-5.6,2.3C3601.5,295.1,3600.8,297,3600.8,299.2z"/>
			<path class="st7" d="M3624.2,299.1c0-3,1.1-5.5,3.3-7.6c2.2-2.1,4.8-3.2,7.8-3.2c3,0,5.6,1.1,7.7,3.2c2.2,2.1,3.2,4.7,3.2,7.7
				c0,3-1.1,5.6-3.2,7.7c-2.2,2.1-4.8,3.2-7.9,3.2c-2.7,0-5.2-0.9-7.3-2.8C3625.4,305.2,3624.2,302.5,3624.2,299.1z M3627.4,299.2
				c0,2.3,0.8,4.2,2.3,5.7c1.6,1.5,3.4,2.2,5.4,2.2c2.2,0,4.1-0.8,5.6-2.3c1.5-1.5,2.3-3.4,2.3-5.6c0-2.2-0.7-4.1-2.3-5.6
				c-1.5-1.5-3.3-2.3-5.5-2.3c-2.2,0-4,0.8-5.5,2.3C3628.2,295.1,3627.4,297,3627.4,299.2z"/>
			<path class="st7" d="M3655.2,288.7v18.1h7.1v3H3652v-21.1H3655.2z"/>
			<path class="st7" d="M3440.9,288.7v18.1h7.1v3h-10.3v-21.1H3440.9z"/>
		</g>
		<g>
			<g>
				<g id="XMLID_72_">
					<path id="XMLID_91_" class="st7" d="M3334.7,241.4h8.3l6.6,17.3l7-17.3h8.4l5.9,32.3h-9.1l-2.7-18.6h-0.1l-7.8,18.6h-3.3
						l-7.4-18.6h-0.1l-3,18.6h-8.5L3334.7,241.4z"/>
					<path id="XMLID_88_" class="st7" d="M3383.6,268.1l-2.2,5.6h-8.9l12.4-32.3h9.2l12.2,32.3h-9l-2.1-5.6H3383.6z M3389.5,251.4
						L3389.5,251.4l-3.6,10.3h7L3389.5,251.4z"/>
					<path id="XMLID_86_" class="st7" d="M3408.7,241.4h8.4l15.4,19.8h0.1v-19.8h8.4v32.3h-8.4l-15.4-19.8h-0.1v19.8h-8.4V241.4z"/>
					<path id="XMLID_83_" class="st7" d="M3454.6,268.1l-2.2,5.6h-8.9l12.4-32.3h9.2l12.2,32.3h-9l-2.1-5.6H3454.6z M3460.5,251.4
						L3460.5,251.4l-3.6,10.3h7L3460.5,251.4z"/>
					<path id="XMLID_81_" class="st7" d="M3510.9,255.6c-0.1,4.7-0.4,8.8-3.3,12.8c-3.2,4.4-7.9,6.3-13.3,6.3
						c-10.2,0-17.2-6.9-17.2-17.1c0-10.5,7.1-17.4,17.5-17.4c6.7,0,11.8,3,14.6,9.1l-8,3.3c-1.2-3.1-3.6-5.1-7-5.1
						c-5.5,0-8.4,5.3-8.4,10.2c0,5,3,10.1,8.5,10.1c3.6,0,6.4-1.9,6.8-5.6h-6.9v-6.6H3510.9z"/>
					<path id="XMLID_79_" class="st7" d="M3523.2,248.5v5.4h9.5v7.1h-9.5v5.6h10v7.1h-18.4v-32.3h18.4v7.1H3523.2z"/>
					<path id="XMLID_77_" class="st7" d="M3589.8,248.5v5.4h9.5v7.1h-9.5v5.6h10v7.1h-18.4v-32.3h18.4v7.1H3589.8z"/>
					<path id="XMLID_75_" class="st7" d="M3605,241.4h8.4l15.4,19.8h0.1v-19.8h8.4v32.3h-8.4l-15.4-19.8h-0.1v19.8h-8.4V241.4z"/>
					<path id="XMLID_73_" class="st7" d="M3655.3,273.7h-8.4v-25.2h-6.9v-7.1h22.3v7.1h-6.9V273.7z"/>
				</g>
			</g>
			<path id="XMLID_70_" class="st7" d="M3542.2,241.4h8.3l6.6,17.3l7-17.3h8.4l5.9,32.3h-9.1l-2.7-18.6h-0.1l-7.8,18.6h-3.3
				l-7.4-18.6h-0.1l-3,18.6h-8.5L3542.2,241.4z"/>
		</g>
		<polygon class="st1" points="3476.5,173.6 3476.1,171.3 3466.3,118.7 3433.4,118.7 3411.1,172.1 3388.8,118.7 3355.8,118.7 
			3335.3,228.6 3368.1,228.6 3378.6,172.3 3403.3,228.6 3418.9,228.6 3443.5,172.3 3453.9,228.6 3465.4,228.6 3476.5,228.6 		"/>
	</g>
	<g>
		<path class="st8" d="M2830.1,1410.4c126.1-87.4,129.1-219.7,129.1-219.7l2.3-1.1V713.3h-199.9V1345L2830.1,1410.4L2830.1,1410.4z"
			/>
		<polygon class="st9" points="1631.8,1262.4 1350.5,1262.4 1350.5,1476.8 1687.9,1476.8 1774,1390.9 1774,1322.6 1631.8,1322.6 		
			"/>
		<polygon class="st10" points="1453.8,907 1414.1,907 1414.1,906.3 1346.8,906.3 1346.8,952.5 920.4,952.5 920.4,1478.2 
			1350.1,1478.2 1350.1,1212.5 1414.1,1212.5 1414.1,1098.5 1453.8,1098.5 		"/>
		<polygon class="st11" points="1998.7,1262.4 1998.7,1317.2 1928.7,1317.2 1928.7,1478.2 2547.7,1478.2 2547.7,1423.4 
			2547.7,1317.2 2547.7,1262.4 		"/>
		<rect x="2026.2" y="451.2" class="st12" width="1013.1" height="226.6"/>
		<polygon class="st13" points="1772.7,451.2 1665.8,451.2 1648.5,451.2 1173.9,451.2 1173.9,713.7 1672.8,713.7 1672.8,580.5 
			1772.7,580.5 		"/>
		<g>
			<path class="st14" d="M898.2,1456h767.8l132.5-132.5h108V1456H2595c0,0,350-7.2,344.3-341.4V947.5h378.8V429H1151.7v501.3H898.2
				V1456z"/>
			<line class="st14" x1="3099.2" y1="479.4" x2="3099.2" y2="725.7"/>
			<line class="st14" x1="3099.2" y1="806.8" x2="3099.2" y2="947.5"/>
			<line class="st14" x1="3017.1" y1="816" x2="3017.1" y2="942.5"/>
			<line class="st14" x1="3099.2" y1="573" x2="3318.1" y2="573"/>
			<line class="st14" x1="2939.3" y1="947.5" x2="2939.3" y2="691.1"/>
			<line class="st14" x1="2981.1" y1="820.8" x2="2939.3" y2="820.8"/>
			<line class="st14" x1="3099.2" y1="820.8" x2="3057.4" y2="820.8"/>
			<polyline class="st14" points="2004,429 2004,578.2 1824.7,578.2 1824.7,611.5 			"/>
			<line class="st14" x1="1750.5" y1="429" x2="1750.5" y2="578.2"/>
			<line class="st14" x1="1750.5" y1="558.3" x2="1626.3" y2="558.3"/>
			<line class="st14" x1="1650.6" y1="650.2" x2="1650.6" y2="558.3"/>
			<polyline class="st14" points="1736.4,558.3 1736.4,643.5 1673.6,643.5 			"/>
			<polyline class="st14" points="1151.7,688.3 1327.9,688.3 1327.9,781.8 			"/>
			<polyline class="st14" points="1151.7,930.2 1327.9,930.2 1327.9,839.4 			"/>
			<line class="st14" x1="1327.9" y1="1240.2" x2="1327.9" y2="1456"/>
			<polyline class="st14" points="1609.6,1240.2 1609.6,1300.4 1751.7,1300.4 			"/>
			<line class="st14" x1="1680.7" y1="1240.2" x2="1680.7" y2="1300.4"/>
			<line class="st14" x1="1751.7" y1="1240.2" x2="1751.7" y2="1367"/>
			<line class="st14" x1="1480.3" y1="1076.3" x2="1480.3" y2="1190.2"/>
			<polyline class="st14" points="1568,1076.3 1568,1190.2 1592.3,1190.2 1592.3,1158.2 			"/>
			<line class="st14" x1="1592.3" y1="1076.3" x2="1592.3" y2="1108.9"/>
			<line class="st14" x1="1429.1" y1="1190.2" x2="1530.2" y2="1190.2"/>
			<line class="st14" x1="1546.2" y1="904.7" x2="1546.2" y2="1076.3"/>
			<line class="st14" x1="1431.6" y1="904.7" x2="1609.6" y2="904.7"/>
			<line class="st14" x1="1431.6" y1="1041.7" x2="1431.6" y2="1076.3"/>
			<polyline class="st14" points="1546.2,965.5 1609.6,965.5 1609.6,995.6 			"/>
			<polyline class="st14" points="1609.6,1021.9 1609.6,1076.3 1391.9,1076.3 1391.9,1190.2 			"/>
			<line class="st14" x1="1500.8" y1="691.5" x2="1500.8" y2="904.7"/>
			<polyline class="st14" points="1609.6,832.3 1609.6,804.8 1388.1,804.8 1388.1,852.8 			"/>
			<line class="st14" x1="1609.6" y1="875.9" x2="1609.6" y2="925.8"/>
			<line class="st14" x1="1449.5" y1="691.5" x2="1552.6" y2="691.5"/>
			<polyline class="st14" points="1609.6,724.8 1609.6,691.5 1587.2,691.5 1587.2,804.8 			"/>
			<line class="st14" x1="1609.6" y1="775.4" x2="1609.6" y2="804.8"/>
			<polyline class="st14" points="1416.9,804.8 1416.9,691.5 1379.2,691.5 			"/>
			<polyline class="st14" points="1383.3,884.8 1431.6,884.8 1431.6,1007.8 			"/>
			<line class="st14" x1="1650.6" y1="686.4" x2="1650.6" y2="1190.2"/>
			<polyline class="st14" points="1650.6,1076.3 1827.3,1076.3 1827.3,1059 			"/>
			<line class="st14" x1="1757.5" y1="1190.2" x2="1685.2" y2="1190.2"/>
			<line class="st14" x1="1721.3" y1="1076.3" x2="1721.3" y2="1190.2"/>
			<line class="st14" x1="1792.7" y1="1192.8" x2="1792.7" y2="1076.3"/>
			<polyline class="st14" points="2037.9,1076.3 1904.1,1076.3 1904.1,1059 			"/>
			<polyline class="st14" points="1750.5,684.5 1750.5,804.8 1827.3,804.8 1827.3,688.3 1782.5,688.3 			"/>
			<line class="st14" x1="1680" y1="804.8" x2="1650.6" y2="804.8"/>
			<line class="st14" x1="1753.7" y1="804.8" x2="1730" y2="804.8"/>
			<polyline class="st14" points="1904.1,824 1904.1,804.8 1995.7,804.8 1995.7,1076.3 			"/>
			<line class="st14" x1="1827.3" y1="804.8" x2="1827.3" y2="822.1"/>
			<polyline class="st14" points="1962.4,667.2 1900.9,667.2 1900.9,759.4 1995.7,759.4 1995.7,662.4 			"/>
			<polyline class="st14" points="2100.7,1190.2 2066.7,1190.2 2066.7,804.8 			"/>
			<line class="st14" x1="2024.2" y1="804.8" x2="2181.9" y2="804.8"/>
			<line class="st14" x1="2040.6" y1="686.7" x2="2040.6" y2="804.8"/>
			<line class="st14" x1="2111.5" y1="691.5" x2="2111.5" y2="804.8"/>
			<line class="st14" x1="2181.9" y1="686.4" x2="2181.9" y2="929.7"/>
			<line class="st14" x1="2073.2" y1="691.5" x2="2147.6" y2="691.5"/>
			<line class="st14" x1="2240.5" y1="686.4" x2="2240.5" y2="804.8"/>
			<line class="st14" x1="2211.8" y1="804.8" x2="2434.8" y2="804.8"/>
			<polyline class="st14" points="2277.1,691.5 2434.8,691.5 2434.8,723 			"/>
			<path class="st14" d="M2434.8,1108.2"/>
			<line class="st14" x1="2434.8" y1="774.2" x2="2434.8" y2="1108.2"/>
			<polyline class="st14" points="2434.8,1159.4 2434.8,1190.2 2411.7,1190.2 2411.7,1078.9 			"/>
			<polyline class="st14" points="2066.7,1076.3 2181.9,1076.3 2181.9,991 			"/>
			<line class="st14" x1="2066.7" y1="960.1" x2="2187.7" y2="960.1"/>
			<polyline class="st14" points="2211.8,1076.3 2240.5,1076.3 2434.8,1076.3 			"/>
			<path class="st14" d="M2240.5,1190.2"/>
			<line class="st14" x1="2240.5" y1="1076.3" x2="2240.5" y2="1196"/>
			<line class="st14" x1="2277.1" y1="1190.2" x2="2377.9" y2="1190.2"/>
			<line class="st14" x1="2327.5" y1="1076.3" x2="2327.5" y2="1190.2"/>
			<line class="st14" x1="2411.7" y1="691.1" x2="2411.7" y2="804.8"/>
			<polyline class="st14" points="2697.2,686.3 2697.2,804.8 2481,804.8 2481,824.9 			"/>
			<polyline class="st14" points="2502.4,723 2502.4,691.5 2525.4,691.5 2525.4,804.8 			"/>
			<line class="st14" x1="2502.4" y1="774.2" x2="2502.4" y2="804.8"/>
			<line class="st14" x1="2560.9" y1="691.5" x2="2662.3" y2="691.5"/>
			<line class="st14" x1="2611.6" y1="804.8" x2="2611.6" y2="691.5"/>
			<line class="st14" x1="2544" y1="804.8" x2="2544" y2="1019.8"/>
			<line class="st14" x1="2544" y1="1046.2" x2="2544" y2="1076.3"/>
			<polyline class="st14" points="2481,1076.3 2697.2,1076.3 2697.2,1033.7 			"/>
			<polyline class="st14" points="2657.8,977.5 2481,977.5 2481,1019.8 			"/>
			<polyline class="st14" points="2657.8,920.1 2657.8,997.5 2703.3,997.5 			"/>
			<line class="st14" x1="2586.3" y1="977.5" x2="2586.3" y2="1076.3"/>
			<polyline class="st14" points="2663.5,891.4 2481,891.4 2481,947.5 			"/>
			<line class="st14" x1="2481" y1="1046.2" x2="2481" y2="1108.2"/>
			<polyline class="st14" points="2481,1158.3 2481,1190.2 2638.1,1190.2 			"/>
			<line class="st14" x1="2673" y1="1190.2" x2="2673" y2="1076.3"/>
			<line class="st14" x1="2502.4" y1="1076.3" x2="2502.4" y2="1190.2"/>
			<line class="st14" x1="2657.8" y1="806.8" x2="2657.8" y2="855.9"/>
			<line class="st14" x1="2229.2" y1="884" x2="2229.2" y2="1033.7"/>
			<line class="st14" x1="2229.2" y1="1055" x2="2229.2" y2="1076.3"/>
			<line class="st14" x1="2229.2" y1="804.8" x2="2229.2" y2="822.1"/>
			<line class="st14" x1="2229.2" y1="844.9" x2="2229.2" y2="862.2"/>
			<polyline class="st14" points="1904.1,1240.2 1904.1,1289.8 1976.5,1289.8 			"/>
			<line class="st14" x1="3017.1" y1="429" x2="3017.1" y2="655.5"/>
		</g>
	</g>
	<g>
		<text transform="matrix(1 0 0 1 1319.6877 565.6887)" class="st0 st3 st15 st16">FINANCE</text>
	</g>
	<text transform="matrix(1 0 0 1 3188.6526 511.3709)" class="st6 st17 st18 st19">9212</text>
	<text transform="matrix(1 0 0 1 2549.4001 755.6164)" class="st6 st17 st18 st19">9229</text>
	<text transform="matrix(1 0 0 1 2583.2917 855.8837)" class="st6 st17 st18 st19">9203</text>
	<text transform="matrix(1 0 0 1 2583.2917 942.4845)" class="st6 st17 st18 st19">9199</text>
	<text transform="matrix(1 0 0 1 2621.1611 1040.1718)" class="st6 st17 st18 st19">9197</text>
	<text transform="matrix(1 0 0 1 2569.1113 1144.8369)" class="st6 st17 st18 st19">9176</text>
	<text transform="matrix(1 0 0 1 2348.8164 1144.8369)" class="st6 st17 st18 st19">9170</text>
	<text transform="matrix(1 0 0 1 2265.0781 1144.8369)" class="st6 st17 st18 st19">9169</text>
	<text transform="matrix(1 0 0 1 2140.2373 1144.8369)" class="st6 st17 st18 st19">9163</text>
	<text transform="matrix(1 0 0 1 1949.4917 1144.8369)" class="st6 st17 st18 st19">9153</text>
	<text transform="matrix(1 0 0 1 2633.7683 755.6164)" class="st6 st17 st18 st19">9221</text>
	<text transform="matrix(1 0 0 1 3176.1228 762.8691)" class="st6 st3 st20 st19">CAFE</text>
	<g>
		<text transform="matrix(1 0 0 1 2327.4939 565.6887)" class="st0 st3 st15 st16">COMMUNICATIONS</text>
	</g>
	<g>
		<text transform="matrix(1 0 0 1 2111.5222 1341.9484)"><tspan x="0" y="0" class="st0 st3 st15 st16">GLOBAL</tspan><tspan x="0" y="56.4" class="st0 st3 st15 st16">PROGRAMS</tspan></text>
	</g>
	<g>
		<text transform="matrix(1 0 0 1 1399.3586 1341.9474)"><tspan x="0" y="0" class="st0 st3 st15 st16">HUMAN</tspan><tspan x="0" y="56.4" class="st0 st3 st15 st16">RECOURCES</tspan></text>
	</g>
	<g>
		<text transform="matrix(1 0 0 1 997.259 1182.838)"><tspan x="0" y="0" class="st0 st3 st15 st16">EXECUTIVE</tspan><tspan x="0" y="56.4" class="st0 st3 st15 st16">EDUCATION</tspan></text>
	</g>
	<g>
		<text transform="matrix(1 0 0 1 2969.823 1021.8576)"><tspan x="0" y="0" class="st0 st3 st15 st16">SLOAN</tspan><tspan x="0" y="56.4" class="st0 st3 st15 st16">MANAGEMENT</tspan><tspan x="0" y="112.7" class="st0 st3 st15 st16">REVIEW</tspan></text>
	</g>
	<text transform="matrix(1 0 0 1 1219.8179 822.1032)" class="st6 st17 st18 st19">9132</text>
	<text transform="matrix(1 0 0 1 1853.4753 511.3709)" class="st6 st17 st18 st19">9260</text>
	<text transform="matrix(1 0 0 1 1672.7111 611.465)" class="st6 st17 st18 st19">9262</text>
	<text transform="matrix(1 0 0 1 1438.8964 762.869)" class="st6 st17 st18 st19">9269</text>
	<text transform="matrix(1 0 0 1 1470.3948 998.645)" class="st6 st17 st18 st19">9133</text>
	<text transform="matrix(1 0 0 1 1416.7769 1142.7739)" class="st6 st17 st18 st19">9143</text>
	<text transform="matrix(1 0 0 1 1500.6433 1142.7739)" class="st6 st17 st18 st19">9144</text>
	<text transform="matrix(1 0 0 1 1665.184 1142.7739)" class="st6 st17 st18 st19">9150</text>
	<text transform="matrix(1 0 0 1 1736.531 1142.7739)" class="st6 st17 st18 st19">9151</text>
	<text transform="matrix(1 0 0 1 1526.2527 762.869)" class="st6 st17 st18 st19">9264</text>
	<text transform="matrix(1 0 0 1 1768.9025 762.869)" class="st6 st17 st18 st19">9261</text>
	<text transform="matrix(1 0 0 1 1755.4617 948.487)" class="st6 st3 st20 st19">ELEVATORS</text>
	<rect x="2076.9" y="730.9" class="st21" width="69.2" height="34.4"/>
	<text transform="matrix(1 0 0 1 2093.2373 755.616)" class="st6 st17 st18 st19">9252</text>
	<text transform="matrix(1 0 0 1 2307.5234 755.616)" class="st6 st17 st18 st19">9244</text>
	<text transform="matrix(1 0 0 1 1928.3213 722.9784)" class="st6 st17 st18 st19">9259</text>
	<g>
		<text transform="matrix(1 0 0 1 2068.5933 785.8251)" class="st0 st3 st18 st19">A</text>
	</g>
	<g>
		<text transform="matrix(1 0 0 1 2141.8735 785.8251)" class="st0 st3 st18 st19">B</text>
	</g>
	<g>
		<g>
			<g>
				<g>
					<path class="st0" d="M2315.9,917.3c-9.1,0-9.2,0-16.7,0c-4,0-7.3,3.3-7.4,7.3l-0.1,22.8c0,1.7,1.4,3.1,3.1,3.1c0,0,0,0,0,0
						c1.7,0,3.1-1.4,3.1-3.1l0.1-22.8c0,0,0,0,0,0c0-0.3,0.3-0.6,0.6-0.6c0.3,0,0.6,0.3,0.6,0.6l0,52.2c0,2.1,1.7,3.7,3.7,3.7
						c2.1,0,3.7-1.7,3.7-3.7v-29.8h1.6v29.8c0,2.1,1.7,3.7,3.7,3.7c2.1,0,3.7-1.7,3.7-3.7c0-49.3-0.1-21.1-0.1-52.2
						c0-0.3,0.3-0.6,0.6-0.7c0.3,0,0.6,0.3,0.7,0.6v0l0,22.8c0,1.7,1.4,3.1,3.1,3.1c0,0,0,0,0,0c1.7,0,3.1-1.4,3.1-3.1l0-22.8
						c0,0,0,0,0,0C2323.2,920.6,2319.9,917.3,2315.9,917.3z"/>
				</g>
			</g>
			<g>
				<g>
					<circle class="st0" cx="2307.5" cy="908.8" r="6.4"/>
				</g>
			</g>
			<g>
				<g>
					<path class="st0" d="M2375.9,942.6c-0.1-0.2-5.7-16.3-6.6-18.9c-1.4-4.2-3.8-6.3-7.1-6.3c-4.6,0-6.1,0-10.7,0
						c-3.3,0-5.7,2.1-7.1,6.3c-0.9,2.6-6.5,18.7-6.6,18.9c-0.6,1.6,0.3,3.4,1.9,3.9c1.6,0.6,3.4-0.3,3.9-1.9
						c0.2-0.5,3.6-10,5.5-15.4c-0.2,1.6,0.4-1.7-4.4,22.9c-0.2,1.1,0.6,2,1.7,2c0.7,0,1.5,0,2.4,0v22.4c0,2,1.7,3.7,3.7,3.7
						c2,0,3.7-1.7,3.7-3.7v-22.4c0.5,0,1.1,0,1.6,0v22.4c0,2,1.7,3.7,3.7,3.7s3.7-1.7,3.7-3.7v-22.4c0.9,0,1.7,0,2.4,0
						c1.1,0,1.9-1,1.7-2c-4.7-24.5-4.2-21.6-4.4-22.9c1.9,5.5,5.2,14.9,5.4,15.4c0.6,1.6,2.3,2.5,3.9,1.9
						C2375.7,946,2376.5,944.2,2375.9,942.6z"/>
				</g>
			</g>
			<g>
				<g>
					<circle class="st0" cx="2356.9" cy="909.1" r="6.4"/>
				</g>
			</g>
			<g>
				<g>
					<path class="st0" d="M2331.2,906.5c-1.3,0-2.4,1.1-2.4,2.4v65.2c0,1.3,1.1,2.4,2.4,2.4s2.4-1.1,2.4-2.4v-65.2
						C2333.6,907.6,2332.6,906.5,2331.2,906.5z"/>
				</g>
			</g>
		</g>
	</g>
	<g>
		<g>
			<path class="st1" d="M1851,1101.3c-16.6,0-30,13.5-30,30c0,20.5,26.9,50.7,28,52c1.1,1.2,2.9,1.2,4,0c1.1-1.3,28-31.4,28-52
				C1881,1114.8,1867.5,1101.3,1851,1101.3z M1851,1146.5c-8.3,0-15.1-6.8-15.1-15.1s6.8-15.1,15.1-15.1s15.1,6.8,15.1,15.1
				C1866.1,1139.7,1859.3,1146.5,1851,1146.5z"/>
		</g>
	</g>
</g>
<g>
	<g>
		<line class="st22" x1="2035.8" y1="1080.5" x2="2035.8" y2="1087"/>
		<line class="st23" x1="2035.8" y1="1092.5" x2="2035.8" y2="1183.6"/>
		<polyline class="st22" points="2035.8,1186.3 2035.8,1192.8 2029.4,1192.8 		"/>
		<line class="st24" x1="2023.7" y1="1192.8" x2="1911.4" y2="1192.8"/>
		<polyline class="st22" points="1908.6,1192.8 1902.1,1192.8 1902.1,1186.3 		"/>
		<line class="st23" x1="1902.1" y1="1180.8" x2="1902.1" y2="1089.8"/>
		<line class="st22" x1="1902.1" y1="1087" x2="1902.1" y2="1080.5"/>
	</g>
</g>
<text transform="matrix(1 0 0 1 2958.0432 891.3628)" class="st6 st17 st18 st19">9209</text>
<text transform="matrix(1 0 0 1 3039.1484 891.3628)" class="st6 st17 st18 st19">9210</text>
</svg>
